<svg width="28" height="56" version="1.1" viewBox="0 0 7.408 14.82" xmlns="http://www.w3.org/2000/svg">
<path transform="scale(.2646)" d="m14 5.018c-4.968 2.733e-4 -8.996 4.028-8.996 8.996 2.722e-4 4.968 4.028 8.996 8.996 8.996 4.968-2.74e-4 8.996-4.028 8.996-8.996-2.73e-4 -4.968-4.028-8.996-8.996-8.996zm-1.822 1.66h3.633v5.531l5.529 0.003907 0.003906 3.627h-5.531l-0.003906 5.523-3.629 0.001953v-5.525l-5.529-0.001953v-3.633l5.527 0.003906v-5.531zm-12.18 21.34v27.99h28v-27.99h-28zm13.82 1.988c3.243-0.0472 6.367 1.22 8.66 3.514 4.685 4.686 4.685 12.28 0 16.97-4.686 4.685-12.28 4.685-16.97 0-4.685-4.686-4.685-12.28 0-16.97 2.207-2.207 5.187-3.468 8.309-3.514zm-1.646 4.662v5.531l-5.527-0.003906v3.633l5.529 0.001953v5.525l3.629-0.001953 0.003906-5.523h5.531l-0.003906-3.627-5.529-0.003907v-5.531h-3.633z" fill="#fff" stroke-width=".9996"/>
</svg>
