<svg width="28" height="56" version="1.1" viewBox="0 0 7.408 14.82" xmlns="http://www.w3.org/2000/svg">
<path transform="matrix(.2646 0 0 .2646 -.001 0)" d="m14 5c-4.969 2.732e-4 -8.998 4.029-8.998 8.998 2.721e-4 4.969 4.029 8.998 8.998 8.998 4.969-2.73e-4 8.998-4.029 8.998-8.998-2.72e-4 -4.969-4.029-8.998-8.998-8.998zm-1.5 1.738h3v4.199l-0.8398 6.111h-1.34l-0.8203-6.111v-4.199zm0 11.63h3v2.885h-3v-2.885zm-12.5 9.633v27.99h28v-27.99h-28zm14 1.984a12 12 0 0 1 12 12 12 12 0 0 1-12 12 12 12 0 0 1-12-12 12 12 0 0 1 12-12zm-1.5 4.74v4.197l0.8203 6.113h1.34l0.8398-6.113v-4.197h-3zm0 11.63v2.885h3v-2.885h-3z" fill="#fff" stroke-width=".9998"/>
</svg>
