<svg width="48" height="48" version="1.1" viewBox="0 0 12.7 12.7" xmlns="http://www.w3.org/2000/svg" xmlns:xlink="http://www.w3.org/1999/xlink">
<g transform="translate(-15.44 -280.5)">
<path d="m6.349 286 5.292e-4 1e-3a0.6174 0.6174 0 0 0-0.6172 0.6172 0.6174 0.6174 0 0 0 0.4623 0.5969v2.818a0.6174 0.6174 0 0 0-0.2976 0.1778l-2.961-1.595a0.6174 0.6174 0 0 0 0.01868-0.1472 0.6174 0.6174 0 0 0-0.6177-0.6172 0.6174 0.6174 0 0 0-0.6172 0.6172 0.6174 0.6174 0 0 0 0.4629 0.5975v3.126a0.6174 0.6174 0 0 0-0.4629 0.5975 0.6174 0.6174 0 0 0 0.6172 0.6172 0.6174 0.6174 0 0 0 0.4782-0.2271l2.927 1.351a0.6174 0.6174 0 0 0-0.00929 0.1105 0.6174 0.6174 0 0 0 0.6166 0.6172 0.6174 0.6174 0 0 0 0.6172-0.6172 0.6174 0.6174 0 0 0-0.00931-0.1105l2.928-1.351a0.6174 0.6174 0 0 0 0.4777 0.2271 0.6174 0.6174 0 0 0 0.6172-0.6172 0.6174 0.6174 0 0 0-0.4629-0.5975v-3.126a0.6174 0.6174 0 0 0 0.4629-0.5975 0.6174 0.6174 0 0 0-0.6172-0.6172 0.6174 0.6174 0 0 0-0.4782 0.2271l-2.928-1.351a0.6174 0.6174 0 0 0 0.00931-0.1105 0.6174 0.6174 0 0 0-0.6172-0.6172zm0.4782 1.007 2.927 1.351a0.6174 0.6174 0 0 0-0.0105 0.11 0.6174 0.6174 0 0 0 0.01855 0.1477l-2.961 1.594a0.6174 0.6174 0 0 0-0.2976-0.1778v-2.818a0.6174 0.6174 0 0 0 0.3228-0.2063l5.291e-4 -1e-3zm-4.04 1.881 2.961 1.594a0.6174 0.6174 0 0 0-0.01807 0.1472 0.6174 0.6174 0 0 0 0.01807 0.1472l-2.961 1.595a0.6174 0.6174 0 0 0-0.2976-0.1784v-3.126a0.6174 0.6174 0 0 0 0.2976-0.1784zm7.121 5.3e-4v1e-3a0.6174 0.6174 0 0 0 0.2977 0.1784v3.126a0.6174 0.6174 0 0 0-0.4629 0.5975 0.6174 0.6174 0 0 0 0.0105 0.11l-2.928 1.352a0.6174 0.6174 0 0 0-0.4777-0.2276 0.6174 0.6174 0 0 0-0.4782 0.2271l-2.927-1.351a0.6174 0.6174 0 0 0 0.0105-0.11 0.6174 0.6174 0 0 0-0.01865-0.1477l2.961-1.594a0.6174 0.6174 0 0 0 0.453 0.1981 0.6174 0.6174 0 0 0 0.6172-0.6172 0.6174 0.6174 0 0 0-0.01807-0.1472l2.961-1.595z" fill="#cf7933"/>
</g>
<path id="path16711" d="m3.88 2.91c-0.5373 0-0.9699 0.4324-0.9699 0.9699v1.941h1.94c0.5373 0 0.9703-0.4327 0.9703-0.9703v-1.94zm1.213 0.7387 0.2671 0.2672-1.249 1.249-0.713-0.7133 0.2671-0.2683 0.4459 0.4469z" fill="#cf7933"/>
<use transform="translate(3.969)" width="100%" height="100%" xlink:href="#path16711"/>
<use id="use16735" transform="translate(0 3.969)" width="100%" height="100%" xlink:href="#path16711"/>
<use transform="translate(3.969)" width="100%" height="100%" xlink:href="#use16735"/>
</svg>
