<?xml version="1.0" encoding="UTF-8"?>
<svg width="48" height="48" version="1.1" viewBox="0 0 12.7 12.7" xmlns="http://www.w3.org/2000/svg" xmlns:cc="http://creativecommons.org/ns#" xmlns:dc="http://purl.org/dc/elements/1.1/" xmlns:rdf="http://www.w3.org/1999/02/22-rdf-syntax-ns#">
 <metadata>
  <rdf:RDF>
   <cc:Work rdf:about="">
    <dc:format>image/svg+xml</dc:format>
    <dc:type rdf:resource="http://purl.org/dc/dcmitype/StillImage"/>
    <dc:title/>
   </cc:Work>
  </rdf:RDF>
 </metadata>
 <g>
  <path d="m6.35 3.4a1.102 1.102 0 0 0-1.102 1.102 1.102 1.102 0 0 0 1.102 1.103 1.102 1.102 0 0 0 1.102-1.103 1.102 1.102 0 0 0-1.102-1.102zm0 2.646a1.984 1.764 0 0 0-1.984 1.764v0.878a3.307 3.307 0 0 0 1.984 0.6656 3.307 3.307 0 0 0 1.984-0.6666v-0.8769a1.984 1.764 0 0 0-1.984-1.764z" fill="#2f88b2"/>
  <path transform="scale(.26458)" d="m24 3a21 21 0 0 0-21 21 21 21 0 0 0 21 21 21 21 0 0 0 21-21 21 21 0 0 0-21-21zm0 2a19 19 0 0 1 19 19 19 19 0 0 1-19 19 19 19 0 0 1-19-19 19 19 0 0 1 19-19z" fill="#7eb4ce"/>
  <path d="m6.35 1.8521a4.4979 4.4979 0 0 0-4.4979 4.4979 4.4979 4.4979 0 0 0 4.4979 4.4979 4.4979 4.4979 0 0 0 4.4979-4.4979 4.4979 4.4979 0 0 0-4.4979-4.4979zm0 0.26458a4.2333 4.2333 0 0 1 4.2333 4.2333 4.2333 4.2333 0 0 1-4.2333 4.2333 4.2333 4.2333 0 0 1-4.2333-4.2333 4.2333 4.2333 0 0 1 4.2333-4.2333z" fill="#7eb4ce"/>
 </g>
</svg>
