<svg width="48" height="48" version="1.1" viewBox="0 0 12.7 12.7" xmlns="http://www.w3.org/2000/svg">
<path transform="scale(.2646)" d="m24 3.998c-11.03 0-20 8.973-20 20.01s8.966 20 20 20 20.01-8.966 20.01-20-8.973-20.01-20.01-20.01zm0 2c9.951 0 18.01 8.051 18.01 18.01 0 9.955-8.051 18-18.01 18-9.951 0-18-8.043-18-18 0-9.955 8.043-18.01 18-18.01z" color="#000000" color-rendering="auto" dominant-baseline="auto" fill="#949494" image-rendering="auto" shape-rendering="auto" solid-color="#000000" stroke-width="3.78" style="font-feature-settings:normal;font-variant-alternates:normal;font-variant-caps:normal;font-variant-ligatures:normal;font-variant-numeric:normal;font-variant-position:normal;isolation:auto;mix-blend-mode:normal;shape-padding:0;text-decoration-color:#000000;text-decoration-line:none;text-decoration-style:solid;text-indent:0;text-orientation:mixed;text-transform:none;white-space:normal"/>
<path d="m6.351 2.887-2.566 2.282 1.684 1.498 0.8816-0.785 0.8837 0.7844 1.684-1.497zm-2.566 2.709-5.17e-4 2.567 1.445-1.285zm5.134 0.00155-1.444 1.283 1.444 1.283zm-2.568 0.7121-2.566 2.282 5.134 5.168e-4z" fill="#5a5a5a"/>
</svg>
