<svg width="48" height="48" version="1.1" viewBox="0 0 12.7 12.7" xmlns="http://www.w3.org/2000/svg">
<path transform="scale(.2646)" d="m24 3.998c-11.03 0-20 8.973-20 20.01s8.966 20 20 20 20.01-8.966 20.01-20-8.973-20.01-20.01-20.01zm0 2c9.951 0 18.01 8.051 18.01 18.01 0 9.955-8.051 18-18.01 18-9.951 0-18-8.043-18-18 0-9.955 8.043-18.01 18-18.01z" color="#000000" color-rendering="auto" dominant-baseline="auto" fill="#949494" image-rendering="auto" shape-rendering="auto" solid-color="#000000" stroke-width="3.78" style="font-feature-settings:normal;font-variant-alternates:normal;font-variant-caps:normal;font-variant-ligatures:normal;font-variant-numeric:normal;font-variant-position:normal;isolation:auto;mix-blend-mode:normal;shape-padding:0;text-decoration-color:#000000;text-decoration-line:none;text-decoration-style:solid;text-indent:0;text-orientation:mixed;text-transform:none;white-space:normal"/>
<path d="m2.056 7.079 1.359-0.2914-0.2137-0.3701zm1.375-0.794 3.363 0.693 1.083-3.26zm0.2135 0.3708 1.284 2.223 0.6095-1.833zm4.446-2.567-0.6088 1.833 1.892 0.389zm-4.141 3.626-1.039 0.8467 1.253-0.4762zm1.902-0.6045-0.7104 2.139 4.447-2.567-2.208-0.4546-0.3726 1.121zm-1.153 1.901-0.932 1.032 1.146-0.6615z" fill="#5a5a5a"/>
</svg>
