<svg width="48" height="48" version="1.1" viewBox="0 0 12.7 12.7" xmlns="http://www.w3.org/2000/svg">
<path transform="scale(.2646)" d="m24 3.998c-11.03 0-20 8.973-20 20.01s8.966 20 20 20 20.01-8.966 20.01-20-8.973-20.01-20.01-20.01zm0 2c9.951 0 18.01 8.051 18.01 18.01 0 9.955-8.051 18-18.01 18-9.951 0-18-8.043-18-18 0-9.955 8.043-18.01 18-18.01z" color="#000000" color-rendering="auto" dominant-baseline="auto" fill="#949494" image-rendering="auto" shape-rendering="auto" solid-color="#000000" stroke-width="3.78" style="font-feature-settings:normal;font-variant-alternates:normal;font-variant-caps:normal;font-variant-ligatures:normal;font-variant-numeric:normal;font-variant-position:normal;isolation:auto;mix-blend-mode:normal;shape-padding:0;text-decoration-color:#000000;text-decoration-line:none;text-decoration-style:solid;text-indent:0;text-orientation:mixed;text-transform:none;white-space:normal"/>
<path d="m6.327 3.572c-0.7304 0-1.806 0.2759-1.829 1.964h1.024v-0.08199c0-0.5752 0.3539-1.001 0.8284-1.001 0.4518 0 0.791 0.3727 0.791 0.8585 0 0.8965-1.281 0.8667-1.281 2.211v0.1037h0.9333c0-0.493 0.05346-0.5752 0.5052-0.8887 0.7001-0.493 0.9031-0.8202 0.9031-1.448 0-1.016-0.768-1.718-1.875-1.718zm-0.5414 4.466v1.09h1.129v-1.09z" fill="#5a5a5a"/>
</svg>
