<svg width="48" height="48" version="1.1" viewBox="0 0 12.7 12.7" xmlns="http://www.w3.org/2000/svg" xmlns:xlink="http://www.w3.org/1999/xlink">
<path id="path6347" d="m6.35 2.645c-0.3652 5.62e-5 -0.6613 0.2961-0.6613 0.6613-3.726e-4 0.3656 0.2957 0.6626 0.6613 0.6628 0.3656-7.03e-5 0.6617-0.2971 0.6613-0.6628-5.88e-5 -0.3652-0.2961-0.6613-0.6613-0.6613zm0 1.588c-0.6577 0-1.191 0.4742-1.191 1.059v0.5254c0.3431 0.2588 0.7613 0.3989 1.191 0.3997 0.4296-7.455e-4 0.847-0.1405 1.19-0.399v-0.5262c1.292e-4 -0.5846-0.5326-1.059-1.19-1.059z" fill="#2f89b4"/>
<use transform="translate(-2.646 3.175)" width="100%" height="100%" xlink:href="#path6347"/>
<use transform="translate(2.646 3.175)" width="100%" height="100%" xlink:href="#path6347"/>
</svg>
