<svg width="28" height="56" version="1.1" viewBox="0 0 7.408 14.82" xmlns="http://www.w3.org/2000/svg">
<path transform="matrix(.2646 0 0 .2646 -.001 0)" d="m14 5.018c-4.967 2.733e-4 -8.994 4.027-8.994 8.994 2.722e-4 4.967 4.027 8.994 8.994 8.994 4.967-2.74e-4 8.994-4.027 8.994-8.994-2.73e-4 -4.967-4.027-8.994-8.994-8.994zm-3.912 2.523 3.904 3.91 3.91-3.91 2.568 2.568-3.91 3.91 3.906 3.912-2.562 2.566-3.91-3.91-3.906 3.902-2.568-2.564 3.906-3.906-3.906-3.91 2.568-2.568zm-10.09 20.47v27.98h28v-27.98h-28zm13.82 1.988h0.001953c3.242-0.04719 6.366 1.218 8.658 3.512 4.684 4.685 4.684 12.28 0 16.97-4.685 4.684-12.28 4.684-16.97 0-4.684-4.685-4.684-12.28 0-16.97 2.207-2.207 5.185-3.466 8.307-3.512zm-3.734 5.525-2.568 2.568 3.906 3.91-3.906 3.906 2.568 2.564 3.906-3.902 3.91 3.91 2.562-2.566-3.906-3.912 3.91-3.91-2.568-2.568-3.91 3.91-3.904-3.91z" fill="#fff" stroke-width=".9998"/>
</svg>
