<svg width="28" height="56" version="1.1" viewBox="0 0 7.408 14.82" xmlns="http://www.w3.org/2000/svg">
<path transform="matrix(.2646 0 0 .2646 -.001 0)" d="m14 5.018c-4.967 2.733e-4 -8.994 4.027-8.994 8.994 2.722e-4 4.967 4.027 8.994 8.994 8.994 4.967-2.74e-4 8.994-4.027 8.994-8.994-2.73e-4 -4.967-4.027-8.994-8.994-8.994zm-1.25 1.494h2.5l0.5586 1.787a6 6 0 0 1 0.959 0.3906l1.652-0.8652 1.768 1.768-0.8672 1.656a6 6 0 0 1 0.4004 0.957l1.779 0.5566v2.5l-1.787 0.5586a6 6 0 0 1-0.3906 0.959l0.8652 1.652-1.768 1.768-1.656-0.8672a6 6 0 0 1-0.957 0.4004l-0.5566 1.779h-2.5l-0.5586-1.787a6 6 0 0 1-0.959-0.3906l-1.652 0.8652-1.768-1.768 0.8672-1.656a6 6 0 0 1-0.4004-0.957l-1.779-0.5566v-2.5l1.787-0.5586a6 6 0 0 1 0.3906-0.959l-0.8652-1.652 1.768-1.768 1.656 0.8672a6 6 0 0 1 0.957-0.4004l0.5566-1.779zm1.25 5.5a2 2 0 0 0-2 2 2 2 0 0 0 2 2 2 2 0 0 0 2-2 2 2 0 0 0-2-2zm-14 16v27.98h28v-27.98h-28zm13.82 1.988h0.001954c3.242-0.04719 6.366 1.218 8.658 3.512 4.684 4.685 4.684 12.28 0 16.97-4.685 4.684-12.28 4.684-16.97 0-4.684-4.685-4.684-12.28 0-16.97 2.207-2.207 5.185-3.466 8.307-3.512zm-1.074 4.496-0.5566 1.779a6 6 0 0 0-0.957 0.4004l-1.656-0.8672-1.768 1.768 0.8652 1.652a6 6 0 0 0-0.3906 0.959l-1.787 0.5586v2.5l1.779 0.5566a6 6 0 0 0 0.4004 0.957l-0.8672 1.656 1.768 1.768 1.652-0.8652a6 6 0 0 0 0.959 0.3906l0.5586 1.787h2.5l0.5566-1.779a6 6 0 0 0 0.957-0.4004l1.656 0.8672 1.768-1.768-0.8652-1.652a6 6 0 0 0 0.3906-0.959l1.787-0.5586v-2.5l-1.779-0.5566a6 6 0 0 0-0.4004-0.957l0.8672-1.656-1.768-1.768-1.652 0.8652a6 6 0 0 0-0.959-0.3906l-0.5586-1.787h-2.5zm1.25 5.5a2 2 0 0 1 2 2 2 2 0 0 1-2 2 2 2 0 0 1-2-2 2 2 0 0 1 2-2z" fill="#fff" stroke-width=".9998"/>
</svg>
