<svg width="48" height="48" version="1.1" viewBox="0 0 12.7 12.7" xmlns="http://www.w3.org/2000/svg">
<path d="m1.709 9.493v1.543h0.3979v-1.543zm0.7896 0v1.543h0.3772v-1.058l0.5612 1.058h0.4444v-1.543h-0.3772v1.058l-0.5612-1.058zm1.59 0 0.5715 1.543h0.4744l0.5715-1.543h-0.4l-0.4082 1.139-0.4093-1.139zm2.064 0-0.5715 1.543h0.4l0.09816-0.2811h0.6222l0.09712 0.2811h0.4l-0.5715-1.543zm1.25 0v1.543h1.097v-0.3007h-0.6986v-1.242zm1.348 0v1.543h0.3979v-1.543zm0.7896 0v1.543h0.4196c0.2315 0 0.4051-0.01654 0.5209-0.04961 0.1158-0.03376 0.215-0.09064 0.2977-0.1706 0.07235-0.06959 0.1261-0.1498 0.1612-0.2408 0.03514-0.09168 0.05271-0.1957 0.05271-0.3122 0-0.115-0.01757-0.2181-0.05271-0.309s-0.08888-0.1712-0.1612-0.2408c-0.082-0.07993-0.1806-0.1364-0.2956-0.1695-0.1144-0.03376-0.2887-0.05064-0.523-0.05064zm0.3979 0.3007h0.1426c0.1633 0 0.2877 0.03996 0.3731 0.1199 0.08544 0.07993 0.1282 0.1964 0.1282 0.3494 0 0.1537-0.04306 0.2708-0.1292 0.3514-0.08544 0.08064-0.2094 0.121-0.3721 0.121h-0.1426zm-3.547 0.06098 0.2108 0.6139h-0.4227z" fill="#949494"/>
<path d="m6.35 1.254a3.175 3.175 0 0 0-3.175 3.175 3.175 3.175 0 0 0 3.175 3.175 3.175 3.175 0 0 0 3.175-3.175 3.175 3.175 0 0 0-3.175-3.175zm-1.408 1.087 1.407 1.409 1.409-1.409 0.6799 0.6799-1.409 1.409 1.408 1.409-0.6781 0.6795-1.409-1.409-1.408 1.407-0.6795-0.6786 1.408-1.408-1.408-1.409z" fill="#5a5a5a"/>
</svg>
