<svg width="48" height="48" version="1.1" viewBox="0 0 12.7 12.7" xmlns="http://www.w3.org/2000/svg">
<path d="m6.351 1.453a3.142 2.977 0 0 0-3.142 2.977 3.142 2.977 0 0 0 0.6426 1.798l-0.4237 0.4237 0.7015 0.7015 0.4614-0.4614a3.142 2.977 0 0 0 1.76 0.515 3.142 2.977 0 0 0 3.142-2.977 3.142 2.977 0 0 0-0.6426-1.798l0.4237-0.4237-0.7015-0.7015-0.4614 0.4614a3.142 2.977 0 0 0-1.76-0.515zm0 0.8269a2.315 2.15 0 0 1 1.158 0.2901l-3.07 3.07a2.315 2.15 0 0 1-0.4038-1.21 2.315 2.15 0 0 1 2.315-2.15zm1.911 0.94a2.315 2.15 0 0 1 0.4038 1.21 2.315 2.15 0 0 1-2.315 2.15 2.315 2.15 0 0 1-1.158-0.2901z" fill="#5a5a5a" stroke-width=".2646"/>
<path d="m3.459 9.464c-0.2474 0-0.4417 0.07097-0.5829 0.2129-0.1406 0.1419-0.2108 0.338-0.2108 0.5881 3e-7 0.2494 0.07028 0.4451 0.2108 0.587 0.1412 0.1419 0.3356 0.2129 0.5829 0.2129 0.248 0 0.4424-0.07097 0.5829-0.2129 0.1406-0.1419 0.2108-0.3376 0.2108-0.587 3e-7 -0.2501-0.07028-0.4461-0.2108-0.5881-0.1406-0.1419-0.3349-0.2129-0.5829-0.2129zm7.642 0c-0.266 0-0.4754 0.07131-0.6284 0.2139-0.153 0.1426-0.2294 0.3383-0.2294 0.587 0 0.246 0.0751 0.441 0.2253 0.585 0.1502 0.1433 0.3538 0.215 0.6108 0.215 0.1137 0 0.2239-0.01206 0.3307-0.03618 0.1068-0.02411 0.2098-0.06029 0.309-0.1085v-0.7421h-0.6201v0.2666h0.2429v0.2997c-0.02825 0.01101-0.06029 0.01927-0.09612 0.02481-0.03514 0.0048-0.07338 0.0072-0.1147 0.0072-0.1523 0-0.2698-0.04444-0.3524-0.1333-0.08268-0.08888-0.124-0.215-0.124-0.3783 0-0.1647 0.04272-0.2911 0.1282-0.3793 0.08613-0.08888 0.2084-0.1333 0.3669-0.1333 0.08544 0 0.1705 0.01206 0.2553 0.03618 0.08544 0.02412 0.1712 0.06063 0.2573 0.1096v-0.3193c-0.08337-0.0379-0.1723-0.06649-0.2667-0.08578-0.09371-0.0193-0.1919-0.02894-0.2946-0.02894zm-10.12 0.0279v1.543h0.3772v-1.058l0.5612 1.058h0.4444v-1.543h-0.3772v1.058l-0.5612-1.058zm3.388 0v0.3008h0.5126v1.242h0.3979v-1.242h0.5116v-0.3008zm1.627 0v1.543h0.3979v-0.6542h0.587v0.6542h0.3979v-1.543h-0.3979v0.5881h-0.587v-0.5881zm1.774 0v1.543h0.3979v-1.543zm0.7896 0v1.543h0.3772v-1.058l0.5612 1.058h0.4444v-1.543h-0.3772v1.058l-0.5612-1.058zm-5.099 0.2604c0.122 0 0.2164 0.04478 0.2832 0.1344 0.06684 0.08957 0.1003 0.2157 0.1003 0.3783 0 0.1619-0.03342 0.2877-0.1003 0.3772-0.06683 0.08957-0.1612 0.1344-0.2832 0.1344-0.1213 0-0.2153-0.04478-0.2822-0.1344-0.06683-0.08957-0.1003-0.2153-0.1003-0.3772 0-0.1626 0.03342-0.2887 0.1003-0.3783 0.06684-0.08957 0.1609-0.1344 0.2822-0.1344z" fill="#949494"/>
</svg>
