<svg width="48" height="48" version="1.1" viewBox="0 0 12.7 12.7" xmlns="http://www.w3.org/2000/svg">
<path transform="scale(.2646)" d="m24 5c-7.171 0-13 5.831-13 13 0 7.171 5.827 13 13 13 7.171 0 13-5.827 13-13 0-7.171-5.831-13-13-13zm0 1.5c6.357 0 11.5 5.142 11.5 11.5s-5.142 11.5-11.5 11.5c-6.357 0-11.5-5.138-11.5-11.5s5.138-11.5 11.5-11.5z" color="#000000" color-rendering="auto" dominant-baseline="auto" fill="#949494" image-rendering="auto" shape-rendering="auto" solid-color="#000000" stroke-width="3.78" style="font-feature-settings:normal;font-variant-alternates:normal;font-variant-caps:normal;font-variant-ligatures:normal;font-variant-numeric:normal;font-variant-position:normal;isolation:auto;mix-blend-mode:normal;shape-padding:0;text-decoration-color:#000000;text-decoration-line:none;text-decoration-style:solid;text-indent:0;text-orientation:mixed;text-transform:none;white-space:normal"/>
<path d="m6.35 3.398c-0.7524 0-1.357 0.3763-1.357 0.9028v0.9048c-0.4524 0-0.5149-0.3904-0.724-0.181 0 0-0.181 0.181 0.2714 0.4523 0.309 0.181 0.4523 0.1791 0.4523 0.1791h2.714s0.1866 0.00182 0.4523-0.1791c0.4524-0.2714 0.2714-0.4523 0.2714-0.4523-0.2049-0.2049-0.2713 0.181-0.724 0.181v-0.9048c0-0.5264-0.6045-0.9028-1.357-0.9028z" fill="#5a5a5a"/>
<path d="m6.448 9.315c-0.217 0-0.3834 0.04823-0.4992 0.1447-0.1158 0.09646-0.1736 0.2342-0.1736 0.4134 0 0.1431 0.04123 0.2572 0.124 0.3416 0.0836 0.0844 0.2153 0.1459 0.3953 0.1845l0.1798 0.03979c0.1093 0.02411 0.1819 0.0511 0.2181 0.08165 0.03698 0.03054 0.05581 0.07395 0.05581 0.1302 0 0.0627-0.02727 0.1109-0.08113 0.1447-0.05386 0.03376-0.1313 0.05064-0.2325 0.05064-0.09968 0-0.2034-0.01493-0.3111-0.04547-0.1069-0.03135-0.2178-0.07792-0.3328-0.139v0.3922c0.115 0.0426 0.2297 0.07441 0.3447 0.09612s0.2295 0.03256 0.3436 0.03256c0.242 0 0.4216-0.04823 0.539-0.1447 0.1182-0.09727 0.1773-0.2448 0.1773-0.4434 0-0.1511-0.0422-0.2679-0.1266-0.3498-0.0844-0.08199-0.2267-0.1433-0.4268-0.1835l-0.1974-0.03979c-0.09405-0.01929-0.1592-0.0422-0.1953-0.06873-0.03537-0.02733-0.05323-0.06494-0.05323-0.1132 0-0.06431 0.02653-0.1116 0.07958-0.1421 0.05305-0.03055 0.135-0.04599 0.246-0.04599 0.0836 0 0.1726 0.01108 0.2667 0.03359 0.09405 0.02251 0.1905 0.05604 0.2894 0.1003v-0.3809c-0.1117-0.02974-0.22-0.05219-0.3245-0.06666-0.1045-0.01527-0.206-0.02274-0.3049-0.02274zm-2.63 0.03256v1.079c0 0.2548 0.06391 0.4449 0.1917 0.5695 0.1278 0.1246 0.3222 0.1866 0.5834 0.1866 0.2621 0 0.4572-0.06195 0.585-0.1866 0.1278-0.1246 0.1917-0.3147 0.1917-0.5695v-1.079h-0.4646v1.079c0 0.1487-0.02434 0.2556-0.07338 0.3199-0.04823 0.06351-0.1278 0.09508-0.2387 0.09508-0.1101 0-0.1897-0.03158-0.2387-0.09508-0.04823-0.06431-0.07235-0.1712-0.07235-0.3199v-1.079zm3.786 0v1.8h1.28v-0.3509h-0.8149v-0.4124h0.7416v-0.3509h-0.7416v-0.3354h0.7886v-0.3509z" fill="#949494"/>
</svg>
