<svg width="48" height="48" version="1.1" viewBox="0 0 12.7 12.7" xmlns="http://www.w3.org/2000/svg">
<path transform="scale(.2646)" d="m24 5c-7.171 0-13 5.831-13 13 0 7.171 5.827 13 13 13 7.171 0 13-5.827 13-13 0-7.171-5.831-13-13-13zm0 1.5c6.357 0 11.5 5.142 11.5 11.5s-5.142 11.5-11.5 11.5c-6.357 0-11.5-5.138-11.5-11.5s5.138-11.5 11.5-11.5z" color="#000000" color-rendering="auto" dominant-baseline="auto" fill="#949494" image-rendering="auto" shape-rendering="auto" solid-color="#000000" stroke-width="3.78" style="font-feature-settings:normal;font-variant-alternates:normal;font-variant-caps:normal;font-variant-ligatures:normal;font-variant-numeric:normal;font-variant-position:normal;isolation:auto;mix-blend-mode:normal;shape-padding:0;text-decoration-color:#000000;text-decoration-line:none;text-decoration-style:solid;text-indent:0;text-orientation:mixed;text-transform:none;white-space:normal"/>
<path d="m6.35 3.398c-0.7524 0-1.357 0.3763-1.357 0.9028v0.9048c-0.4524 0-0.5149-0.3904-0.724-0.181 0 0-0.181 0.181 0.2714 0.4523 0.309 0.181 0.4523 0.1791 0.4523 0.1791h2.714s0.1866 0.00182 0.4523-0.1791c0.4524-0.2714 0.2714-0.4523 0.2714-0.4523-0.2049-0.2049-0.2713 0.181-0.724 0.181v-0.9048c0-0.5264-0.6045-0.9028-1.357-0.9028z" fill="#5a5a5a"/>
<text x="3.1211202" y="11.14671" fill="#949494" font-family="sans-serif" font-size="1.984px" letter-spacing="0px" stroke-width=".2646px" word-spacing="0px" style="line-height:125%" xml:space="preserve"><tspan x="3.1211202" y="11.14671" fill="#949494" font-size="2.469px" font-weight="bold" stroke-width=".2646px">UNQ</tspan></text>
<rect transform="rotate(45)" x="7.66" y="-4.298" width=".3969" height="6.35" fill="#949494"/>
</svg>
