<svg width="48" height="48" version="1.1" viewBox="0 0 12.7 12.7" xmlns="http://www.w3.org/2000/svg">
<path transform="scale(.2646)" d="m24 5c-7.171 0-13 5.831-13 13 0 7.171 5.827 13 13 13 7.171 0 13-5.827 13-13 0-7.171-5.831-13-13-13zm0 1.5c6.357 0 11.5 5.142 11.5 11.5s-5.142 11.5-11.5 11.5c-6.357 0-11.5-5.138-11.5-11.5s5.138-11.5 11.5-11.5z" color="#000000" color-rendering="auto" dominant-baseline="auto" fill="#949494" image-rendering="auto" shape-rendering="auto" solid-color="#000000" stroke-width="3.78" style="font-feature-settings:normal;font-variant-alternates:normal;font-variant-caps:normal;font-variant-ligatures:normal;font-variant-numeric:normal;font-variant-position:normal;isolation:auto;mix-blend-mode:normal;shape-padding:0;text-decoration-color:#000000;text-decoration-line:none;text-decoration-style:solid;text-indent:0;text-orientation:mixed;text-transform:none;white-space:normal"/>
<path d="m6.35 3.398c-0.7524 0-1.357 0.3763-1.357 0.9028v0.9048c-0.4524 0-0.5149-0.3904-0.724-0.181 0 0-0.181 0.181 0.2714 0.4523 0.309 0.181 0.4523 0.1791 0.4523 0.1791h2.714s0.1866 0.00182 0.4523-0.1791c0.4524-0.2714 0.2714-0.4523 0.2714-0.4523-0.2049-0.2049-0.2713 0.181-0.724 0.181v-0.9048c0-0.5264-0.6045-0.9028-1.357-0.9028z" fill="#5a5a5a"/>
<path transform="scale(.2646)" d="m11.99 35.33v6.805h1.662v-4.668l2.475 4.668h1.961v-6.805h-1.664v4.666l-2.475-4.666h-1.959zm7.82 0v6.805h4.834v-1.326h-3.08v-1.559h2.803v-1.326h-2.803v-1.268h2.98v-1.326h-4.734zm5.801 0 1.617 6.805h2.023l1.223-5.174 1.234 5.174h2.023l1.604-6.805h-1.668l-1.176 4.945-1.166-4.945h-1.691l-1.166 4.945-1.176-4.945h-1.682z" fill="#949494"/>
</svg>
