<svg width="48" height="48" version="1.1" viewBox="0 0 12.7 12.7" xmlns="http://www.w3.org/2000/svg">
<path d="m3.818 9.3-0.7144 1.929h0.5001l0.1227-0.3513h0.7779l0.1215 0.3513h0.5001l-0.7144-1.929h-0.593zm1.562 0v1.929h0.4716v-1.323l0.7015 1.323h0.5557v-1.929h-0.4716v1.323l-0.7015-1.323zm2.217 0v1.929h0.5246c0.2894 0 0.507-0.02066 0.6519-0.06201 0.1447-0.0422 0.2687-0.1132 0.3721-0.2132 0.09046-0.08702 0.1576-0.1873 0.2016-0.301 0.04392-0.1146 0.06588-0.2446 0.06588-0.3903 0-0.1438-0.02196-0.2726-0.06588-0.3863-0.04392-0.1137-0.1111-0.214-0.2016-0.3011-0.1025-0.09992-0.2256-0.1705-0.3694-0.2119-0.143-0.0422-0.3615-0.06331-0.6546-0.06331h-0.5246zm0.4974 0.3761h0.1783c0.2042 0 0.3602 0.04994 0.467 0.1499 0.1068 0.09992 0.1602 0.2454 0.1602 0.4366 0 0.1921-0.05381 0.3384-0.1615 0.4392-0.1068 0.1008-0.2625 0.1512-0.4657 0.1512h-0.1783v-1.177zm-3.979 0.07624 0.2636 0.7673h-0.5285l0.2649-0.7673z" fill="#949494" stroke-width=".2646px"/>
<path d="m5.958 1.471-2.645 5.954 0.9915-6.459e-4 2.15-4.836 2.15 4.838 0.9915-6.459e-4 -2.646-5.952z" fill="#5a5a5a"/>
</svg>
