<svg width="48" height="48" version="1.1" viewBox="0 0 12.7 12.7" xmlns="http://www.w3.org/2000/svg">
<path d="m6.349 1.058c-2.919 0-5.291 2.374-5.291 5.293s2.372 5.291 5.291 5.291c2.919 0 5.293-2.372 5.293-5.291s-2.374-5.293-5.293-5.293zm0 0.5292c2.633 0 4.764 2.13 4.764 4.764 0 2.634-2.13 4.762-4.764 4.762-2.633 0-4.762-2.128-4.762-4.762 0-2.634 2.128-4.764 4.762-4.764z" color="#000000" color-rendering="auto" dominant-baseline="auto" fill="#949494" image-rendering="auto" shape-rendering="auto" solid-color="#000000" style="font-feature-settings:normal;font-variant-alternates:normal;font-variant-caps:normal;font-variant-ligatures:normal;font-variant-numeric:normal;font-variant-position:normal;isolation:auto;mix-blend-mode:normal;shape-padding:0;text-decoration-color:#000000;text-decoration-line:none;text-decoration-style:solid;text-indent:0;text-orientation:mixed;text-transform:none;white-space:normal"/>
<path d="m6.35 4.207c-1.111 0-2.004 0.5557-2.004 1.333v1.336c-0.668 0-0.7603-0.5765-1.069-0.2672 0 0-0.2673 0.2672 0.4007 0.6679 0.4563 0.2672 0.6679 0.2645 0.6679 0.2645h4.008s0.2755 0.00274 0.6679-0.2645c0.668-0.4008 0.4007-0.6679 0.4007-0.6679-0.3025-0.3025-0.4006 0.2672-1.069 0.2672v-1.336c0-0.7772-0.8926-1.333-2.004-1.333z" fill="#5a5a5a"/>
<path d="m6.35 1.852a0.5292 0.5292 0 0 0-0.2646 0.07131v0.9152a0.5292 0.5292 0 0 0 0.2646 0.07183 0.5292 0.5292 0 0 0 0.2646-0.07131v-0.9152a0.5292 0.5292 0 0 0-0.2646-0.07183zm-1.047 0.1359a0.5292 0.5292 0 0 0-0.1173 0.01757 0.5292 0.5292 0 0 0-0.2372 0.1369l0.2372 0.8842a0.5292 0.5292 0 0 0 0.2739 0.001033 0.5292 0.5292 0 0 0 0.2372-0.1375l-0.2367-0.8842a0.5292 0.5292 0 0 0-0.1571-0.01809zm2.054 0a0.5292 0.5292 0 0 0-0.1173 0.01757l-0.2367 0.8842a0.5292 0.5292 0 0 0 0.2372 0.138 0.5292 0.5292 0 0 0 0.2739-5.167e-4l0.2367-0.8842a0.5292 0.5292 0 0 0-0.2367-0.1375 0.5292 0.5292 0 0 0-0.1571-0.01757zm-2.991 0.3964a0.5292 0.5292 0 0 0-0.2651 0.07028 0.5292 0.5292 0 0 0-0.1933 0.1943l0.4573 0.7922a0.5292 0.5292 0 0 0 0.2651-0.06976 0.5292 0.5292 0 0 0 0.1933-0.1943zm3.968 0-0.4579 0.7922a0.5292 0.5292 0 0 0 0.1933 0.1948 0.5292 0.5292 0 0 0 0.2646 0.07028l0.4579-0.7927a0.5292 0.5292 0 0 0-0.1933-0.1943 0.5292 0.5292 0 0 0-0.2646-0.07028zm0.9586 0.6485-0.647 0.647a0.5292 0.5292 0 0 0 0.1364 0.2377 0.5292 0.5292 0 0 0 0.2372 0.1369l0.647-0.647a0.5292 0.5292 0 0 0-0.1359-0.2382 0.5292 0.5292 0 0 0-0.2377-0.1364zm-5.885 5.167e-4a0.5292 0.5292 0 0 0-0.2382 0.1359 0.5292 0.5292 0 0 0-0.1364 0.2377l0.647 0.647a0.5292 0.5292 0 0 0 0.2382-0.1364 0.5292 0.5292 0 0 0 0.1364-0.2372zm-0.7586 0.8744a0.5292 0.5292 0 0 0-0.1943 0.1933 0.5292 0.5292 0 0 0-0.07028 0.2646l0.7922 0.4579a0.5292 0.5292 0 0 0 0.1948-0.1933 0.5292 0.5292 0 0 0 0.07028-0.2646zm7.402 0-0.7922 0.4573a0.5292 0.5292 0 0 0 0.06976 0.2651 0.5292 0.5292 0 0 0 0.1943 0.1933l0.7927-0.4573a0.5292 0.5292 0 0 0-0.07028-0.2651 0.5292 0.5292 0 0 0-0.1943-0.1933zm0.5064 1.041-0.8842 0.2372a0.5292 0.5292 0 0 0-0.00103 0.2739 0.5292 0.5292 0 0 0 0.1375 0.2372l0.8842-0.2367a0.5292 0.5292 0 0 0 5.17e-4 -0.2744 0.5292 0.5292 0 0 0-0.1369-0.2372zm-8.414 5.167e-4a0.5292 0.5292 0 0 0-0.1375 0.2367 0.5292 0.5292 0 0 0 0 0.2744l0.8842 0.2367a0.5292 0.5292 0 0 0 0.138-0.2372 0.5292 0.5292 0 0 0-5.168e-4 -0.2739zm-0.2191 1.136a0.5292 0.5292 0 0 0-0.07183 0.2646 0.5292 0.5292 0 0 0 0.07131 0.2646h0.9152a0.5292 0.5292 0 0 0 0.07183-0.2646 0.5292 0.5292 0 0 0-0.07131-0.2646zm7.937 0a0.5292 0.5292 0 0 0-0.07183 0.2646 0.5292 0.5292 0 0 0 0.07131 0.2646h0.9152a0.5292 0.5292 0 0 0 0.07183-0.2646 0.5292 0.5292 0 0 0-0.07131-0.2646zm-6.971 0.9178-0.8842 0.2367a0.5292 0.5292 0 0 0-5.168e-4 0.2744 0.5292 0.5292 0 0 0 0.1369 0.2372l0.8842-0.2372a0.5292 0.5292 0 0 0 0.001034-0.2739 0.5292 0.5292 0 0 0-0.1375-0.2372zm6.92 0a0.5292 0.5292 0 0 0-0.138 0.2372 0.5292 0.5292 0 0 0 5.168e-4 0.2739l0.8842 0.2367a0.5292 0.5292 0 0 0 0.1375-0.2367 0.5292 0.5292 0 0 0 0-0.2744zm-6.633 0.8733-0.7927 0.4573a0.5292 0.5292 0 0 0 0.07028 0.2651 0.5292 0.5292 0 0 0 0.1943 0.1933l0.7922-0.4573a0.5292 0.5292 0 0 0-0.06976-0.2651 0.5292 0.5292 0 0 0-0.1943-0.1933zm6.346 0a0.5292 0.5292 0 0 0-0.1948 0.1933 0.5292 0.5292 0 0 0-0.07028 0.2646l0.7927 0.4579a0.5292 0.5292 0 0 0 0.1943-0.1933 0.5292 0.5292 0 0 0 0.07028-0.2646zm-5.843 0.7689-0.647 0.647a0.5292 0.5292 0 0 0 0.1359 0.2382 0.5292 0.5292 0 0 0 0.2377 0.1364l0.647-0.647a0.5292 0.5292 0 0 0-0.1364-0.2377 0.5292 0.5292 0 0 0-0.2372-0.1369zm5.34 5.168e-4a0.5292 0.5292 0 0 0-0.2377 0.1364 0.5292 0.5292 0 0 0-0.1369 0.2372l0.647 0.647a0.5292 0.5292 0 0 0 0.2382-0.1359 0.5292 0.5292 0 0 0 0.1364-0.2377zm-4.654 0.6124-0.4579 0.7927a0.5292 0.5292 0 0 0 0.1933 0.1943 0.5292 0.5292 0 0 0 0.2646 0.07028l0.4579-0.7922a0.5292 0.5292 0 0 0-0.1933-0.1948 0.5292 0.5292 0 0 0-0.2646-0.07028zm3.969 5.168e-4a0.5292 0.5292 0 0 0-0.2651 0.06976 0.5292 0.5292 0 0 0-0.1933 0.1943l0.4573 0.7927a0.5292 0.5292 0 0 0 0.2651-0.07028 0.5292 0.5292 0 0 0 0.1933-0.1943zm-3.032 0.3958a0.5292 0.5292 0 0 0-0.1168 0.01809l-0.2367 0.8842a0.5292 0.5292 0 0 0 0.2367 0.1375 0.5292 0.5292 0 0 0 0.2744 0l0.2367-0.8842a0.5292 0.5292 0 0 0-0.2372-0.138 0.5292 0.5292 0 0 0-0.1571-0.01757zm2.055 5.17e-4a0.5292 0.5292 0 0 0-0.1168 0.01705 0.5292 0.5292 0 0 0-0.2372 0.1375l0.2367 0.8842a0.5292 0.5292 0 0 0 0.2744 5.17e-4 0.5292 0.5292 0 0 0 0.2372-0.1369l-0.2372-0.8842a0.5292 0.5292 0 0 0-0.1571-0.01809zm-1.007 0.1344a0.5292 0.5292 0 0 0-0.2646 0.07131v0.9152a0.5292 0.5292 0 0 0 0.2646 0.07183 0.5292 0.5292 0 0 0 0.2646-0.07131v-0.9152a0.5292 0.5292 0 0 0-0.2646-0.07183z" fill="#dcdcdc"/>
</svg>
