<svg width="48" height="48" version="1.1" viewBox="0 0 12.7 12.7" xmlns="http://www.w3.org/2000/svg">
<path d="m3.374 4.131h4.961v2.646h0.9921v-3.638h-5.952z" fill="#5a5a5a"/>
<path d="m6.443 9.227c-0.3092 0-0.552 0.08871-0.7286 0.2662-0.1757 0.1774-0.2636 0.4224-0.2636 0.7353 0 0.3118 0.08785 0.5563 0.2636 0.7339 0.1766 0.1774 0.4194 0.2662 0.7286 0.2662 0.3101 0 0.553-0.08871 0.7286-0.2662 0.1757-0.1774 0.2636-0.422 0.2636-0.7339 0-0.3127-0.08785-0.5576-0.2636-0.7353-0.1757-0.1774-0.4187-0.2662-0.7286-0.2662zm-3.098 0.0349v1.929h0.4716v-1.323l0.7015 1.323h0.5557v-1.929h-0.4716v1.323l-0.7015-1.323zm4.234 0v0.3761h0.641v1.553h0.4974v-1.553h0.6397v-0.3761h-1.778zm-1.137 0.3256c0.1524 0 0.2705 0.056 0.3539 0.168 0.08355 0.112 0.1253 0.2696 0.1253 0.473 0 0.2024-0.04177 0.3595-0.1253 0.4716-0.08355 0.112-0.2016 0.168-0.3539 0.168-0.1516 0-0.2692-0.056-0.3526-0.168-0.08342-0.112-0.1253-0.2692-0.1253-0.4716-4e-7 -0.2033 0.04177-0.3608 0.1253-0.473 0.08355-0.112 0.2011-0.168 0.3526-0.168z" fill="#949494" stroke-width=".2646"/>
</svg>
