<svg width="48" height="48" version="1.1" viewBox="0 0 12.7 12.7" xmlns="http://www.w3.org/2000/svg">
<path d="m5.2 1.386v0.926h-1.191v0.3969h4.498v-0.3969h-1.191v-0.926zm0.3969 0.3969h1.323v0.5292h-1.323zm-1.588 1.323 0.5292 4.366h3.44l0.5292-4.366zm1.191 0.3969c0.1466 0 0.2646 0.118 0.2646 0.2646v3.043c0 0.1466-0.118 0.2646-0.2646 0.2646s-0.2646-0.118-0.2646-0.2646v-3.043c0-0.1466 0.118-0.2646 0.2646-0.2646zm1.058 0c0.1466 0 0.2646 0.118 0.2646 0.2646v3.043c0 0.1466-0.118 0.2646-0.2646 0.2646s-0.2646-0.118-0.2646-0.2646v-3.043c0-0.1466 0.118-0.2646 0.2646-0.2646zm1.058 0c0.1466 0 0.2646 0.118 0.2646 0.2646v3.043c0 0.1466-0.118 0.2646-0.2646 0.2646s-0.2646-0.118-0.2646-0.2646v-3.043c0-0.1466 0.118-0.2646 0.2646-0.2646z" fill="#5a5a5a"/>
<path d="m8.041 9.331c-0.217 0-0.3834 0.04823-0.4992 0.1447-0.1158 0.09646-0.1736 0.2342-0.1736 0.4134 0 0.1431 0.04123 0.2567 0.124 0.3411 0.0836 0.0844 0.2153 0.1459 0.3953 0.1845l0.1798 0.03979c0.1093 0.02411 0.1819 0.05162 0.2181 0.08217 0.03698 0.03055 0.05581 0.07396 0.05581 0.1302 0 0.0627-0.02727 0.1109-0.08113 0.1447-0.05386 0.03376-0.1313 0.05064-0.2325 0.05064-0.09968 0-0.2034-0.01545-0.3111-0.04599-0.1069-0.03135-0.2178-0.0774-0.3328-0.1385v0.3917c0.115 0.0426 0.2297 0.07493 0.3447 0.09664 0.115 0.02171 0.2295 0.03256 0.3436 0.03256 0.242 0 0.4216-0.04823 0.539-0.1447 0.1182-0.09727 0.1773-0.2453 0.1773-0.4439 0-0.1511-0.0422-0.2673-0.1266-0.3493-0.0844-0.08199-0.2267-0.1433-0.4268-0.1835l-0.1974-0.03979c-0.09405-0.01929-0.1592-0.0422-0.1953-0.06873-0.03537-0.02733-0.05323-0.06494-0.05323-0.1132 0-0.06431 0.02653-0.1121 0.07958-0.1426 0.05306-0.03055 0.135-0.04548 0.246-0.04548 0.0836 0 0.1726 0.01108 0.2667 0.03359 0.09405 0.02251 0.1905 0.05604 0.2894 0.1003v-0.3814c-0.1117-0.02975-0.22-0.05168-0.3245-0.06615-0.1045-0.01527-0.206-0.02274-0.3049-0.02274zm-6.332 0.03256v0.3509h0.5984v1.449h0.4641v-1.449h0.5969v-0.3509zm1.898 0v1.8h0.4641v-0.6811h0.1318c0.07556 0 0.1359 0.01665 0.1809 0.04961 0.04582 0.03296 0.09066 0.09445 0.1349 0.1845l0.2196 0.447h0.494l-0.2517-0.5111c-0.05145-0.1037-0.1028-0.1809-0.1535-0.2315-0.04984-0.05145-0.1065-0.08424-0.17-0.0987 0.1158-0.03617 0.2023-0.09262 0.2594-0.169 0.05788-0.07637 0.08682-0.174 0.08682-0.293 0-0.172-0.05547-0.2977-0.1664-0.3772-0.1101-0.07958-0.2838-0.1194-0.5209-0.1194zm2.352 0-0.6666 1.8h0.4666l0.1147-0.3276h0.7255l0.1137 0.3276h0.4666l-0.6671-1.8zm3.238 0v1.8h0.4646v-0.7633h0.6847v0.7633h0.4641v-1.8h-0.4641v0.6857h-0.6847v-0.6858zm-5.126 0.3364h0.1953c0.09727 0 0.167 0.01734 0.2088 0.05271 0.0426 0.03537 0.06408 0.09422 0.06408 0.1762 0 0.0828-0.02148 0.1421-0.06408 0.1783-0.0418 0.03617-0.1115 0.05426-0.2088 0.05426h-0.1953zm2.166 0.08527 0.246 0.7162h-0.493z" fill="#949494"/>
</svg>
