<svg width="48" height="48" version="1.1" viewBox="0 0 12.7 12.7" xmlns="http://www.w3.org/2000/svg">
<path d="m5.2 9.246c-0.3093 0-0.552 0.08871-0.7286 0.2662-0.1757 0.1774-0.2636 0.4224-0.2636 0.7353 0 0.3118 0.08785 0.5563 0.2636 0.7339 0.1766 0.1774 0.4194 0.2662 0.7286 0.2662 0.3101 0 0.553-0.08871 0.7286-0.2662 0.1757-0.1774 0.2636-0.422 0.2636-0.7339 0-0.3127-0.08785-0.5576-0.2636-0.7353-0.1757-0.1774-0.4187-0.2662-0.7286-0.2662zm1.367 0.0349v1.929h0.4974v-0.73h0.1408c0.08097 0 0.1456 0.01765 0.1938 0.05299 0.04912 0.03533 0.09734 0.1012 0.1447 0.1977l0.2351 0.4793h0.5299l-0.27-0.5477c-0.05514-0.1111-0.1098-0.1938-0.1641-0.2481-0.05342-0.05514-0.1141-0.09042-0.1822-0.1059 0.124-0.03876 0.2166-0.09902 0.2778-0.1809 0.06202-0.08183 0.09301-0.1865 0.09301-0.3139 0-0.1844-0.0594-0.3191-0.1783-0.4045-0.118-0.08526-0.304-0.1279-0.5583-0.1279h-0.7597zm-1.367 0.3256c0.1525 0 0.2705 0.05596 0.3539 0.168 0.08345 0.112 0.1253 0.2696 0.1253 0.473 0 0.2025-0.04177 0.3595-0.1253 0.4716-0.08355 0.1121-0.2015 0.168-0.3539 0.168-0.1516 0-0.2692-0.05596-0.3526-0.168-0.08342-0.112-0.1253-0.2691-0.1253-0.4716 0-0.2033 0.04177-0.3608 0.1253-0.473 0.08355-0.1121 0.2011-0.168 0.3526-0.168zm1.864 0.03489h0.2093c0.1042 0 0.1787 0.01895 0.2235 0.05686 0.04564 0.0379 0.06846 0.1008 0.06846 0.1886 0 0.08874-0.02282 0.1524-0.06846 0.1912-0.04478 0.03876-0.1193 0.05815-0.2235 0.05815h-0.2093v-0.4948z" fill="#949494" stroke-width=".2646px"/>
<path d="m5.854 7.407-2.645-5.954 0.9915 6.459e-4 2.15 4.836 2.15-4.838 0.9915 6.458e-4 -2.646 5.952z" fill="#5a5a5a"/>
</svg>
