<?xml version="1.0" encoding="UTF-8"?>
<svg width="18" height="18" version="1.1" viewBox="0 0 4.7625 4.7625" xmlns="http://www.w3.org/2000/svg" xmlns:cc="http://creativecommons.org/ns#" xmlns:dc="http://purl.org/dc/elements/1.1/" xmlns:rdf="http://www.w3.org/1999/02/22-rdf-syntax-ns#">
 <metadata>
  <rdf:RDF>
   <cc:Work rdf:about="">
    <dc:format>image/svg+xml</dc:format>
    <dc:type rdf:resource="http://purl.org/dc/dcmitype/StillImage"/>
    <dc:title/>
   </cc:Work>
  </rdf:RDF>
 </metadata>
 <path d="m2.3813 0.26458a0.78358 0.78358 0 0 0-0.78358 0.78358 0.78358 0.78358 0 0 0 0.78358 0.78429 0.78358 0.78358 0 0 0 0.78358-0.78429 0.78358 0.78358 0 0 0-0.78358-0.78358zm0 1.8814a1.4107 1.2543 0 0 0-1.4107 1.2543v0.62431a2.3515 2.3515 0 0 0 1.4107 0.47328 2.3515 2.3515 0 0 0 1.4107-0.47399v-0.62352a1.4107 1.2543 0 0 0-1.4107-1.2543z" fill="#2f88b2" stroke-width=".71105"/>
</svg>
