<svg width="48" height="48" version="1.1" viewBox="0 0 12.7 12.7" xmlns="http://www.w3.org/2000/svg">
<path transform="scale(.2646)" d="m24 4.158c-11.03 0-20 8.971-20 20s8.966 20 20 20 20.01-8.966 20.01-20-8.973-20-20.01-20zm0.003906 1.889c9.951 0 18.01 8.051 18.01 18.01 0 9.955-8.051 18-18.01 18-9.951 0-18-8.043-18-18 0-9.955 8.043-18.01 18-18.01z" color="#000000" color-rendering="auto" dominant-baseline="auto" fill="#949494" image-rendering="auto" shape-rendering="auto" solid-color="#000000" stroke-width="3.78" style="font-feature-settings:normal;font-variant-alternates:normal;font-variant-caps:normal;font-variant-ligatures:normal;font-variant-numeric:normal;font-variant-position:normal;isolation:auto;mix-blend-mode:normal;shape-padding:0;text-decoration-color:#000000;text-decoration-line:none;text-decoration-style:solid;text-indent:0;text-orientation:mixed;text-transform:none;white-space:normal"/>
<path d="m6.35 3.4a1.102 1.102 0 0 0-1.102 1.102 1.102 1.102 0 0 0 1.102 1.103 1.102 1.102 0 0 0 1.102-1.103 1.102 1.102 0 0 0-1.102-1.102zm0 2.646a1.984 1.764 0 0 0-1.984 1.764v0.878a3.307 3.307 0 0 0 1.984 0.6656 3.307 3.307 0 0 0 1.984-0.6666v-0.8769a1.984 1.764 0 0 0-1.984-1.764z" fill="#5a5a5a"/>
</svg>
